<mxfile host="app.diagrams.net" agent="Mozilla/5.0 (X11; Linux x86_64; rv:131.0) Gecko/20100101 Firefox/131.0" version="24.8.0">
  <diagram name="Page-1" id="9vENwXWn7AKejbw_DPiA">
    <mxGraphModel dx="2046" dy="770" grid="1" gridSize="10" guides="1" tooltips="1" connect="1" arrows="1" fold="1" page="1" pageScale="1" pageWidth="850" pageHeight="1100" math="0" shadow="0">
      <root>
        <mxCell id="0" />
        <mxCell id="1" parent="0" />
        <mxCell id="u8ATtg2MGtoJea8mJhCA-1" value="" style="whiteSpace=wrap;html=1;fillColor=#dae8fc;strokeColor=#6c8ebf;" vertex="1" parent="1">
          <mxGeometry x="-30" y="240" width="80" height="30" as="geometry" />
        </mxCell>
        <mxCell id="u8ATtg2MGtoJea8mJhCA-3" value="" style="whiteSpace=wrap;html=1;fillColor=#d5e8d4;strokeColor=#82b366;" vertex="1" parent="1">
          <mxGeometry x="50" y="240" width="80" height="30" as="geometry" />
        </mxCell>
        <mxCell id="u8ATtg2MGtoJea8mJhCA-4" value="" style="whiteSpace=wrap;html=1;fillColor=#dae8fc;strokeColor=#6c8ebf;" vertex="1" parent="1">
          <mxGeometry x="130" y="240" width="80" height="30" as="geometry" />
        </mxCell>
        <mxCell id="u8ATtg2MGtoJea8mJhCA-5" value="" style="whiteSpace=wrap;html=1;fillColor=#d5e8d4;strokeColor=#82b366;" vertex="1" parent="1">
          <mxGeometry x="210" y="240" width="80" height="30" as="geometry" />
        </mxCell>
        <mxCell id="u8ATtg2MGtoJea8mJhCA-8" value="" style="whiteSpace=wrap;html=1;fillColor=#d5e8d4;strokeColor=#82b366;" vertex="1" parent="1">
          <mxGeometry x="380" y="240" width="80" height="30" as="geometry" />
        </mxCell>
        <mxCell id="u8ATtg2MGtoJea8mJhCA-9" value="" style="whiteSpace=wrap;html=1;fillColor=#dae8fc;strokeColor=#6c8ebf;" vertex="1" parent="1">
          <mxGeometry x="460" y="240" width="80" height="30" as="geometry" />
        </mxCell>
        <mxCell id="u8ATtg2MGtoJea8mJhCA-10" value="" style="whiteSpace=wrap;html=1;fillColor=#d5e8d4;strokeColor=#82b366;" vertex="1" parent="1">
          <mxGeometry x="540" y="240" width="80" height="30" as="geometry" />
        </mxCell>
        <mxCell id="u8ATtg2MGtoJea8mJhCA-11" value="" style="whiteSpace=wrap;html=1;fillColor=#dae8fc;strokeColor=#6c8ebf;" vertex="1" parent="1">
          <mxGeometry x="620" y="240" width="80" height="30" as="geometry" />
        </mxCell>
        <mxCell id="u8ATtg2MGtoJea8mJhCA-12" value="..." style="text;html=1;align=center;verticalAlign=middle;resizable=0;points=[];autosize=1;strokeColor=none;fillColor=none;" vertex="1" parent="1">
          <mxGeometry x="320" y="240" width="30" height="30" as="geometry" />
        </mxCell>
        <mxCell id="u8ATtg2MGtoJea8mJhCA-13" value="" style="shape=or;whiteSpace=wrap;html=1;rotation=-90;" vertex="1" parent="1">
          <mxGeometry y="190" width="20" height="80" as="geometry" />
        </mxCell>
        <mxCell id="u8ATtg2MGtoJea8mJhCA-14" value="" style="shape=or;whiteSpace=wrap;html=1;rotation=-90;" vertex="1" parent="1">
          <mxGeometry x="240" y="190" width="20" height="80" as="geometry" />
        </mxCell>
        <mxCell id="u8ATtg2MGtoJea8mJhCA-15" value="" style="shape=or;whiteSpace=wrap;html=1;rotation=-90;" vertex="1" parent="1">
          <mxGeometry x="120" y="150" width="20" height="160" as="geometry" />
        </mxCell>
        <mxCell id="u8ATtg2MGtoJea8mJhCA-16" value="" style="shape=or;whiteSpace=wrap;html=1;rotation=-90;" vertex="1" parent="1">
          <mxGeometry x="410" y="190" width="20" height="80" as="geometry" />
        </mxCell>
        <mxCell id="u8ATtg2MGtoJea8mJhCA-17" value="" style="shape=or;whiteSpace=wrap;html=1;rotation=-90;" vertex="1" parent="1">
          <mxGeometry x="650" y="190" width="20" height="80" as="geometry" />
        </mxCell>
        <mxCell id="u8ATtg2MGtoJea8mJhCA-18" value="" style="shape=or;whiteSpace=wrap;html=1;rotation=-90;" vertex="1" parent="1">
          <mxGeometry x="530" y="150" width="20" height="160" as="geometry" />
        </mxCell>
        <mxCell id="u8ATtg2MGtoJea8mJhCA-19" value="" style="shape=flexArrow;endArrow=classic;html=1;rounded=0;" edge="1" parent="1">
          <mxGeometry width="50" height="50" relative="1" as="geometry">
            <mxPoint x="130" y="130" as="sourcePoint" />
            <mxPoint x="130" y="190" as="targetPoint" />
          </mxGeometry>
        </mxCell>
        <mxCell id="u8ATtg2MGtoJea8mJhCA-20" value="" style="shape=flexArrow;endArrow=classic;html=1;rounded=0;" edge="1" parent="1">
          <mxGeometry width="50" height="50" relative="1" as="geometry">
            <mxPoint x="260" y="130" as="sourcePoint" />
            <mxPoint x="260" y="190" as="targetPoint" />
          </mxGeometry>
        </mxCell>
        <mxCell id="u8ATtg2MGtoJea8mJhCA-21" value="" style="shape=flexArrow;endArrow=classic;html=1;rounded=0;" edge="1" parent="1">
          <mxGeometry width="50" height="50" relative="1" as="geometry">
            <mxPoint x="9.5" y="130" as="sourcePoint" />
            <mxPoint x="9.5" y="190" as="targetPoint" />
          </mxGeometry>
        </mxCell>
        <mxCell id="u8ATtg2MGtoJea8mJhCA-22" value="" style="shape=flexArrow;endArrow=classic;html=1;rounded=0;" edge="1" parent="1">
          <mxGeometry width="50" height="50" relative="1" as="geometry">
            <mxPoint x="539" y="130" as="sourcePoint" />
            <mxPoint x="539" y="190" as="targetPoint" />
          </mxGeometry>
        </mxCell>
        <mxCell id="u8ATtg2MGtoJea8mJhCA-23" value="" style="shape=flexArrow;endArrow=classic;html=1;rounded=0;" edge="1" parent="1">
          <mxGeometry width="50" height="50" relative="1" as="geometry">
            <mxPoint x="659.5" y="130" as="sourcePoint" />
            <mxPoint x="659.5" y="190" as="targetPoint" />
          </mxGeometry>
        </mxCell>
        <mxCell id="u8ATtg2MGtoJea8mJhCA-24" value="" style="shape=flexArrow;endArrow=classic;html=1;rounded=0;" edge="1" parent="1">
          <mxGeometry width="50" height="50" relative="1" as="geometry">
            <mxPoint x="419.5" y="130" as="sourcePoint" />
            <mxPoint x="419.5" y="190" as="targetPoint" />
          </mxGeometry>
        </mxCell>
      </root>
    </mxGraphModel>
  </diagram>
</mxfile>
